<svg fill="#FFFFFF" xmlns="http://www.w3.org/2000/svg" xmlns:xlink="http://www.w3.org/1999/xlink" version="1.1" x="0px" y="0px" viewBox="0 0 100 100" enable-background="new 0 0 100 100" xml:space="preserve"><g><rect x="77.2" y="41.5" fill="#FFFFFF" width="17.1" height="53.5"></rect><rect x="53.3" y="61.5" fill="#FFFFFF" width="17.1" height="33.5"></rect><rect x="29.5" y="47.1" fill="#FFFFFF" width="17.1" height="47.9"></rect><rect x="5.7" y="68.2" fill="#FFFFFF" width="17.1" height="26.8"></rect><path fill="#FFFFFF" d="M14.2,56.8c4.6,0,8.3-3.7,8.3-8.3c0-1.5-0.4-2.8-1-4l13-14.6c1.1,0.5,2.3,0.8,3.6,0.8c1.9,0,3.6-0.6,5-1.7   l10.8,8.5c-0.2,0.8-0.4,1.6-0.4,2.5c0,4.6,3.7,8.3,8.3,8.3s8.3-3.7,8.3-8.3c0-1.4-0.3-2.7-0.9-3.8l13.3-15.1c1,0.4,2,0.6,3.1,0.6   c4.6,0,8.3-3.7,8.3-8.3S90.2,5,85.6,5s-8.3,3.7-8.3,8.3c0,1.5,0.4,2.9,1.1,4.1l-13.2,15c-1-0.4-2.2-0.7-3.3-0.7   c-1.7,0-3.3,0.5-4.6,1.4l-11.1-8.7c0.2-0.7,0.3-1.3,0.3-2c0-4.6-3.7-8.3-8.3-8.3s-8.3,3.7-8.3,8.3c0,1.3,0.3,2.5,0.8,3.5L17.4,40.7   c-1-0.4-2-0.6-3.1-0.6c-4.6,0-8.3,3.7-8.3,8.3S9.6,56.8,14.2,56.8z M12.1,46.6L12.1,46.6c0.2-0.3,0.5-0.5,0.9-0.7c0,0,0,0,0,0   c0.1-0.1,0.3-0.1,0.5-0.2c0,0,0.1,0,0.1,0c0.2,0,0.4-0.1,0.6-0.1c1.5,0,2.8,1.2,2.8,2.8c0,0.2,0,0.4-0.1,0.5c0,0.1-0.1,0.2-0.1,0.3   c0,0,0,0.1,0,0.1c-0.1,0.1-0.1,0.3-0.2,0.4c0,0,0,0,0,0c-0.1,0.1-0.2,0.3-0.3,0.4l0,0c-0.5,0.6-1.2,0.9-2.1,0.9   c-1.5,0-2.8-1.2-2.8-2.8C11.4,47.7,11.7,47.1,12.1,46.6z M38.1,25.1c-1.5,0-2.8-1.2-2.8-2.8c0-1.5,1.2-2.8,2.8-2.8s2.8,1.2,2.8,2.8   C40.9,23.9,39.6,25.1,38.1,25.1z M61.8,37.2c1.5,0,2.8,1.2,2.8,2.8s-1.2,2.8-2.8,2.8s-2.8-1.2-2.8-2.8S60.3,37.2,61.8,37.2z    M88.4,13.3c0,0.7-0.3,1.3-0.7,1.8l0,0c-0.1,0.1-0.3,0.3-0.4,0.4c0,0,0,0,0,0c-0.1,0.1-0.3,0.2-0.5,0.3c0,0,0,0,0,0   c-0.1,0.1-0.3,0.1-0.5,0.2c0,0-0.1,0-0.1,0c-0.2,0-0.4,0.1-0.6,0.1c-1.5,0-2.8-1.2-2.8-2.8c0-0.2,0-0.4,0.1-0.5   c0-0.1,0.1-0.2,0.1-0.3c0,0,0-0.1,0-0.1c0.1-0.1,0.1-0.3,0.2-0.4c0,0,0,0,0,0c0.1-0.1,0.2-0.3,0.3-0.4l0,0c0.5-0.6,1.2-0.9,2.1-0.9   C87.2,10.6,88.4,11.8,88.4,13.3z"></path></g></svg>