<?xml version="1.0" encoding="iso-8859-1"?>
<!-- Generator: Adobe Illustrator 19.0.0, SVG Export Plug-In . SVG Version: 6.00 Build 0)  -->
<svg version="1.1" id="Capa_1" xmlns="http://www.w3.org/2000/svg" xmlns:xlink="http://www.w3.org/1999/xlink" x="0px" y="0px"
	 viewBox="0 0 512 512" style="enable-background:new 0 0 512 512;" xml:space="preserve">
<path style="fill:#3EAF91;" d="M51.635,212.846c5.072-1.549,10.69-2.418,16.605-2.418c5.916,0,11.533,0.869,16.606,2.417
	c1.183-0.905,1.88-2.376,1.722-4.04l-1.378-14.433c-0.261-2.737-2.725-4.978-5.475-4.978H56.767c-2.75,0-5.214,2.24-5.475,4.978
	l-1.379,14.433C49.754,210.469,50.452,211.94,51.635,212.846z"/>
<path style="fill:#E6E9ED;" d="M95.331,342.183v-30.968c0-2.75,2.25-5,5-5h12.771c-1.981-17.912-7.213-34.347-15.038-46.587
	c-0.779-1.22-0.503-2.806,0.643-3.691c6.501-5.023,10.082-11.436,10.082-18.054c0-15.14-18.19-27.455-40.549-27.455
	s-40.547,12.316-40.547,27.455c0,6.617,3.579,13.03,10.08,18.054c1.146,0.886,1.423,2.472,0.643,3.691
	c-10.127,15.843-15.936,38.7-15.936,62.71c0,8.06,0.646,15.962,1.903,23.566H97.03C95.997,344.986,95.331,343.664,95.331,342.183z"
	/>
<path style="fill:#3EAF91;" d="M95.331,342.183v-30.968c0-2.75,2.25-5,5-5h12.771c-1.981-17.912-7.213-34.347-15.038-46.587
	c-0.779-1.22-0.503-2.806,0.643-3.691c6.501-5.023,10.082-11.436,10.082-18.054c0-0.183-0.005-0.365-0.011-0.546H27.703
	c-0.006,0.181-0.01,0.363-0.01,0.546c0,6.617,3.579,13.03,10.08,18.054c1.146,0.886,1.423,2.472,0.643,3.691
	c-10.127,15.843-15.936,38.7-15.936,62.71c0,8.06,0.646,15.962,1.903,23.566H97.03C95.997,344.986,95.331,343.664,95.331,342.183z"
	/>
<path style="opacity:0.1;enable-background:new    ;" d="M22.48,322.338c0,8.06,0.646,15.962,1.903,23.566h22
	c-1.257-7.604-1.903-15.506-1.903-23.566c0-24.01,5.809-46.867,15.936-62.71c0.78-1.22,0.503-2.806-0.643-3.691
	c-6.501-5.023-10.08-11.436-10.08-18.054c0-12.559,12.519-23.165,29.547-26.42c-3.5-0.669-7.188-1.035-11-1.035
	c-22.359,0-40.547,12.316-40.547,27.455c0,6.617,3.579,13.03,10.08,18.054c1.146,0.886,1.423,2.472,0.643,3.691
	C28.289,275.471,22.48,298.328,22.48,322.338z"/>
<path style="fill:#3EAF91;" d="M468.314,199.48c3.418-7.819,5.283-16.423,5.283-25.369c0-1.802-1.439-3.261-3.214-3.261H346.881
	c-1.775,0-3.214,1.459-3.214,3.261c0,8.946,1.865,17.55,5.283,25.369H468.314z"/>
<path style="opacity:0.1;enable-background:new    ;" d="M370.353,199.48c-3.418-7.819-5.283-16.423-5.283-25.369
	c0-1.802,1.439-3.261,3.214-3.261H346.88c-1.775,0-3.214,1.459-3.214,3.261c0,8.946,1.865,17.55,5.283,25.369H370.353z"/>
<path style="fill:#EF5A50;" d="M372.856,255.843h71.551c17.996-11.237,29.189-31.145,29.189-53.102c0-1.802-1.439-3.261-3.214-3.261
	H346.881c-1.775,0-3.214,1.459-3.214,3.261C343.667,224.698,354.859,244.605,372.856,255.843z"/>
<path style="opacity:0.1;enable-background:new    ;" d="M372.856,255.843h21.404c-17.997-11.237-29.189-31.145-29.189-53.102
	c0-1.802,1.439-3.261,3.214-3.261h-21.404c-1.775,0-3.214,1.459-3.214,3.261C343.667,224.698,354.859,244.605,372.856,255.843z"/>
<g>
	<path style="fill:#ABCCD3;" d="M97.03,345.904h27.022c1.033-0.918,1.699-2.24,1.699-3.722v-30.968c0-2.75-2.25-5-5-5h-20.42
		c-2.75,0-5,2.25-5,5v30.968C95.331,343.664,95.997,344.986,97.03,345.904z"/>
	<path style="fill:#ABCCD3;" d="M223.616,345.904h27.021c1.033-0.918,1.699-2.24,1.699-3.722v-30.968c0-2.75-2.25-5-5-5h-20.419
		c-2.75,0-5,2.25-5,5v30.968C221.917,343.664,222.583,344.986,223.616,345.904z"/>
</g>
<path style="fill:#E6E9ED;" d="M246.965,180.624v20.797h23.987v-20.797c0-18.666-16.14-33.852-35.98-33.852h-36.08
	c-19.84,0-35.98,16.271-35.98,36.271v104.651h23.987V183.043c0-6.668,5.38-12.091,11.994-12.091h36.08
	C241.473,170.952,246.965,175.381,246.965,180.624z"/>
<g>
	<path style="fill:#ABCCD3;" d="M279,219.634c0,2.75-2.25,5-5,5h-30.661c-2.75,0-5-2.25-5-5v-13.213c0-2.75,2.25-5,5-5H274
		c2.75,0,5,2.25,5,5V219.634z"/>
	<path style="fill:#ABCCD3;" d="M201.557,345.904v-53.21c0-2.75-2.25-5-5-5h-45.446c-2.75,0-5,2.25-5,5v53.21H201.557z"/>
	<path style="fill:#ABCCD3;" d="M44.377,426.867c0,17.384,13.979,31.477,31.223,31.477h192.654
		c17.245,0,31.225-14.093,31.225-31.477v-51.723H44.377V426.867z"/>
</g>
<path style="opacity:0.1;enable-background:new    ;" d="M71.898,426.867v-51.723H44.377v51.723
	c0,17.384,13.979,31.477,31.223,31.477h27.521C85.877,458.344,71.898,444.251,71.898,426.867z"/>
<path style="fill:#ABCCD3;" d="M327.581,441.063c0,9.544,7.674,17.28,17.141,17.28h105.761c9.465,0,17.14-7.736,17.14-17.28v-65.919
	H327.581V441.063z"/>
<path style="opacity:0.1;enable-background:new    ;" d="M349,441.063v-65.919h-21.419v65.919c0,9.544,7.674,17.28,17.141,17.28
	h21.419C356.674,458.344,349,450.607,349,441.063z"/>
<path style="fill:#B1E8FF;" d="M286.269,283.461h177.839l9.437-22.992c1.044-2.545-0.352-4.626-3.102-4.626h-190.51
	c-2.75,0-4.146,2.081-3.102,4.626L286.269,283.461z"/>
<path style="opacity:0.1;enable-background:new    ;" d="M286.269,283.461h27.109l-9.437-22.992
	c-1.044-2.545,0.352-4.626,3.102-4.626h-27.109c-2.75,0-4.146,2.081-3.102,4.626L286.269,283.461z"/>
<path style="fill:#FFBB4A;" d="M287.099,313.103h176.178l10.268-25.017c1.044-2.544-0.352-4.626-3.102-4.626h-190.51
	c-2.75,0-4.146,2.082-3.102,4.626L287.099,313.103z"/>
<path style="opacity:0.1;enable-background:new    ;" d="M287.099,313.103h27.109l-10.268-25.017
	c-1.044-2.544,0.352-4.626,3.102-4.626h-27.109c-2.75,0-4.146,2.082-3.102,4.626L287.099,313.103z"/>
<path style="fill:#86D5B5;" d="M288.396,345.904H461.98l11.564-28.176c1.044-2.544-0.352-4.625-3.102-4.625h-190.51
	c-2.75,0-4.146,2.081-3.102,4.625L288.396,345.904z"/>
<path style="opacity:0.1;enable-background:new    ;" d="M288.396,345.904h27.109l-11.565-28.176
	c-1.044-2.544,0.352-4.625,3.102-4.625h-27.109c-2.75,0-4.146,2.081-3.102,4.625L288.396,345.904z"/>
<path style="fill:#78A7AF;" d="M504.5,365.144c0,5.5-4.5,10-10,10h-477c-5.5,0-10-4.5-10-10v-9.24c0-5.5,4.5-10,10-10h477
	c5.5,0,10,4.5,10,10V365.144z"/>
<g style="opacity:0.1;">
	<path d="M33,365.144v-9.24c0-5.5,4.5-10,10-10H17.5c-5.5,0-10,4.5-10,10v9.24c0,5.5,4.5,10,10,10H43
		C37.5,375.144,33,370.644,33,365.144z"/>
</g>
<g>
	<path style="fill:#FCC96C;" d="M318.761,159.16c-1.042,0-1.965-0.678-2.275-1.676c-3.732-12.004-6.297-14.57-18.287-18.309
		c-0.997-0.311-1.676-1.234-1.676-2.279c0-1.045,0.679-1.967,1.676-2.277c11.989-3.738,14.554-6.305,18.287-18.309
		c0.31-0.998,1.233-1.678,2.275-1.678c1.044,0,1.966,0.68,2.275,1.678c3.735,12.004,6.298,14.57,18.288,18.309
		c0.996,0.311,1.675,1.232,1.675,2.277s-0.679,1.969-1.675,2.279c-11.99,3.738-14.553,6.305-18.288,18.309
		C320.727,158.482,319.806,159.16,318.761,159.16z"/>
	<path style="fill:#FCC96C;" d="M364.761,95.191c-0.972,0-1.833-0.632-2.123-1.563c-3.481-11.197-5.874-13.591-17.058-17.078
		c-0.93-0.29-1.564-1.151-1.564-2.126c0-0.975,0.634-1.835,1.564-2.124c11.184-3.487,13.576-5.882,17.058-17.079
		c0.289-0.931,1.15-1.564,2.123-1.564c0.974,0,1.834,0.634,2.123,1.564c3.484,11.197,5.875,13.592,17.059,17.079
		c0.929,0.289,1.563,1.149,1.563,2.124c0,0.975-0.634,1.836-1.563,2.126c-11.185,3.487-13.575,5.881-17.059,17.078
		C366.595,94.56,365.735,95.191,364.761,95.191z"/>
</g>
<path d="M68.24,310.255c14.503,0,26.301-11.798,26.301-26.3c0-14.502-11.798-26.301-26.301-26.301
	c-14.502,0-26.301,11.799-26.301,26.301C41.939,298.457,53.738,310.255,68.24,310.255z M68.24,272.654
	c6.232,0,11.301,5.069,11.301,11.301c0,6.23-5.069,11.3-11.301,11.3c-6.231,0-11.301-5.069-11.301-11.3
	S62.009,272.654,68.24,272.654z"/>
<path d="M494.5,338.404h-21.335l7.317-17.828c1.463-3.565,1.158-7.315-0.837-10.291c-1.306-1.948-3.202-3.339-5.432-4.076
	l6.269-15.274c1.463-3.565,1.158-7.316-0.837-10.292c-1.163-1.734-2.796-3.021-4.712-3.807l5.55-13.521
	c1.462-3.565,1.157-7.316-0.838-10.292c-1.995-2.975-5.349-4.681-9.202-4.681h-6.028c10.555-12.407,16.682-28.442,16.682-45.602
	c0-2.98-1.213-5.679-3.167-7.629c2.065-6.674,3.167-13.736,3.167-21.001c0-5.934-4.807-10.761-10.714-10.761H346.881
	c-5.908,0-10.714,4.827-10.714,10.761c0,7.265,1.102,14.327,3.168,21.001c-1.955,1.95-3.168,4.649-3.168,7.629
	c0,17.16,6.127,33.193,16.682,45.602h-72.916c-3.853,0-7.207,1.706-9.202,4.681c-1.995,2.976-2.301,6.727-0.838,10.293l5.549,13.52
	c-1.916,0.785-3.549,2.072-4.712,3.807c-1.995,2.976-2.3,6.727-0.837,10.292l6.269,15.274c-2.23,0.737-4.126,2.128-5.432,4.076
	c-1.995,2.975-2.3,6.725-0.837,10.291l7.317,17.828h-17.374v-27.189c0-6.893-5.607-12.5-12.5-12.5h-20.419
	c-6.893,0-12.5,5.607-12.5,12.5v4.232h-5.36v-22.753c0-6.892-5.607-12.5-12.5-12.5h-2.158v-97.151c0-2.531,2.016-4.591,4.494-4.591
	h36.08c2.857,0,4.493,1.707,4.493,2.172v13.919c-5.001,1.635-8.626,6.338-8.626,11.878v13.213c0,6.893,5.607,12.5,12.5,12.5H274
	c6.893,0,12.5-5.607,12.5-12.5v-13.213c0-5.323-3.35-9.867-8.048-11.666v-14.131c0-22.802-19.505-41.352-43.48-41.352h-36.08
	c-23.975,0-43.48,19.636-43.48,43.771V203c0,4.143,3.358,7.5,7.5,7.5s7.5-3.357,7.5-7.5v-19.957
	c0-15.864,12.776-28.771,28.48-28.771h36.08c15.704,0,28.48,11.821,28.48,26.352v13.297h-8.987v-13.297
	c0-9.469-8.745-17.172-19.493-17.172h-36.08c-10.749,0-19.494,8.788-19.494,19.591v97.151h-8.987V237c0-4.143-3.358-7.5-7.5-7.5
	s-7.5,3.357-7.5,7.5v43.194h-4.301c-6.892,0-12.5,5.608-12.5,12.5v22.753h-5.36v-4.232c0-6.893-5.607-12.5-12.5-12.5h-1.1
	c-2.334-14.844-6.829-28.536-13.141-39.604c6.032-5.758,9.434-12.753,9.748-20.111c0.016-0.372,0.002-2.069-0.004-2.152
	c-0.466-12.195-9.128-22.637-22.213-28.599c-0.004-0.053-0.003-0.104-0.008-0.157l-1.377-14.433
	c-0.63-6.597-6.314-11.765-12.941-11.765H56.767c-6.627,0-12.312,5.168-12.941,11.765l-1.379,14.434
	c-0.005,0.052-0.004,0.105-0.008,0.157c-13.076,5.958-21.735,16.392-22.21,28.578c-0.006,0.089-0.021,1.8-0.005,2.172
	c0.314,7.359,3.715,14.354,9.747,20.111c-9.56,16.765-14.99,39.527-14.99,63.227c0,5.463,0.29,10.857,0.845,16.151
	C6.959,339.336,0,346.82,0,355.904v9.24c0,9.649,7.851,17.5,17.5,17.5h19.377v44.223c0,21.492,17.371,38.977,38.723,38.977h192.654
	c21.353,0,38.725-17.484,38.725-38.977v-44.223h13.102v58.419c0,13.664,11.054,24.78,24.641,24.78h105.761
	c13.586,0,24.64-11.116,24.64-24.78v-58.419H494.5c9.649,0,17.5-7.851,17.5-17.5v-9.24C512,346.255,504.149,338.404,494.5,338.404z
	 M271.5,217.134h-25.661v-8.213H271.5V217.134z M465.938,178.351c-0.353,4.71-1.294,9.282-2.76,13.63H354.084
	c-1.466-4.348-2.406-8.92-2.76-13.63H465.938z M351.325,206.98h114.613c-1.27,16.925-10.093,32.077-23.753,41.362h-67.104
	C361.418,239.056,352.594,223.904,351.325,206.98z M464.258,263.342l-5.179,12.618H450c-4.142,0-7.5,3.358-7.5,7.5
	c0,4.143,3.358,7.5,7.5,7.5h14.258l-6.01,14.643h-166.12l-6.01-14.643H412c4.142,0,7.5-3.357,7.5-7.5c0-4.142-3.358-7.5-7.5-7.5
	H291.297l-5.179-12.618H464.258z M286.119,320.603h178.139l-7.306,17.801H293.425L286.119,320.603z M244.836,313.715v24.689h-15.419
	v-24.689H244.836z M214.417,330.447v7.957h-5.36v-7.957H214.417z M194.057,295.194v43.21h-40.446v-43.21H194.057z M138.611,330.447
	v7.957h-5.36v-7.957H138.611z M118.251,313.715v24.689h-15.42v-24.689H118.251z M58.585,196.894h19.311l0.651,6.816
	c-3.312-0.509-6.756-0.783-10.307-0.783c-3.55,0-6.994,0.274-10.307,0.783L58.585,196.894z M68.24,217.928
	c13.205,0,24.893,4.967,30.127,11.909H38.116C43.349,222.894,55.036,217.928,68.24,217.928z M42.359,250.002
	c-2.069-1.599-3.721-3.344-4.915-5.165h61.595c-1.195,1.821-2.848,3.566-4.917,5.166c-4.238,3.274-5.26,9.148-2.376,13.664
	c6.01,9.403,10.364,21.571,12.725,35.048h-4.139c-6.893,0-12.5,5.607-12.5,12.5v27.189H30.907
	c-0.609-5.243-0.926-10.613-0.926-16.066c0-22.616,5.378-44.001,14.754-58.67C47.621,259.153,46.6,253.278,42.359,250.002z
	 M460.123,441.063c0,5.393-4.324,9.78-9.64,9.78H344.722c-5.316,0-9.641-4.388-9.641-9.78v-58.419h125.042V441.063z M497,365.144
	c0,1.355-1.145,2.5-2.5,2.5H273c-4.142,0-7.5,3.358-7.5,7.5c0,4.143,3.358,7.5,7.5,7.5h18.979v44.223
	c0,13.221-10.643,23.977-23.725,23.977H75.601c-13.081,0-23.723-10.756-23.723-23.977v-44.223H233c4.142,0,7.5-3.357,7.5-7.5
	c0-4.142-3.358-7.5-7.5-7.5H17.5c-1.355,0-2.5-1.145-2.5-2.5v-9.24c0-1.355,1.145-2.5,2.5-2.5h477c1.355,0,2.5,1.145,2.5,2.5
	V365.144z"/>
<path d="M295.967,146.336c9.615,2.998,10.364,3.748,13.357,13.374c1.292,4.157,5.084,6.95,9.438,6.95
	c4.355,0,8.148-2.795,9.437-6.947c2.996-9.63,3.745-10.38,13.359-13.377c4.153-1.295,6.943-5.088,6.943-9.439
	c0-4.35-2.79-8.143-6.943-9.438c-9.614-2.997-10.363-3.747-13.357-13.37c-1.29-4.161-5.083-6.956-9.439-6.956
	c-4.353,0-8.146,2.794-9.437,6.951c-2.994,9.627-3.743,10.377-13.355,13.374c-4.154,1.294-6.946,5.087-6.946,9.439
	C289.023,141.249,291.815,145.043,295.967,146.336z M318.762,130.088c1.804,2.853,3.956,5.005,6.809,6.81
	c-2.852,1.805-5.004,3.958-6.809,6.81c-1.803-2.852-3.957-5.005-6.809-6.81C314.806,135.093,316.958,132.94,318.762,130.088z"/>
<path d="M343.349,83.71c8.817,2.749,9.383,3.316,12.127,12.141c1.27,4.092,5.001,6.841,9.286,6.841c4.287,0,8.019-2.751,9.284-6.835
	c2.747-8.83,3.314-9.397,12.132-12.147c4.084-1.274,6.828-5.006,6.828-9.285c0-4.282-2.747-8.014-6.831-9.284
	c-8.816-2.749-9.382-3.316-12.128-12.14c-1.269-4.094-5.001-6.844-9.286-6.844c-4.283,0-8.014,2.749-9.284,6.838
	c-2.745,8.829-3.312,9.396-12.122,12.144c-4.09,1.271-6.838,5.003-6.838,9.286C336.517,78.704,339.262,82.435,343.349,83.71z
	 M364.762,68.932c1.509,2.216,3.276,3.983,5.492,5.493c-2.215,1.509-3.983,3.277-5.492,5.493c-1.509-2.216-3.276-3.983-5.492-5.493
	C361.486,72.915,363.253,71.147,364.762,68.932z"/>
<g>
</g>
<g>
</g>
<g>
</g>
<g>
</g>
<g>
</g>
<g>
</g>
<g>
</g>
<g>
</g>
<g>
</g>
<g>
</g>
<g>
</g>
<g>
</g>
<g>
</g>
<g>
</g>
<g>
</g>
</svg>
